<svg xmlns="http://www.w3.org/2000/svg" viewBox="0 0 500 100" width="500" height="100">
  <!-- 草地的波浪形狀 -->
  <path d="M0,100 L0,70 
           Q25,60 50,70 
           Q75,80 100,70
           Q125,60 150,70
           Q175,80 200,70
           Q225,60 250,70
           Q275,80 300,70
           Q325,60 350,70
           Q375,80 400,70
           Q425,60 450,70
           Q475,80 500,70
           L500,100 Z" 
        fill="#8BC34A" fill-opacity="0.3" />
  
  <!-- 草的細節 -->
  <g fill="#6AAB35" fill-opacity="0.3">
    <path d="M20,80 Q22,60 25,75 Q28,50 30,75 Q32,65 35,80" />
    <path d="M60,75 Q62,55 65,70 Q68,40 70,70 Q72,55 75,75" />
    <path d="M110,80 Q112,60 115,75 Q118,50 120,75 Q122,65 125,80" />
    <path d="M150,75 Q152,55 155,70 Q158,40 160,70 Q162,55 165,75" />
    <path d="M200,80 Q202,60 205,75 Q208,50 210,75 Q212,65 215,80" />
    <path d="M240,75 Q242,55 245,70 Q248,40 250,70 Q252,55 255,75" />
    <path d="M290,80 Q292,60 295,75 Q298,50 300,75 Q302,65 305,80" />
    <path d="M330,75 Q332,55 335,70 Q338,40 340,70 Q342,55 345,75" />
    <path d="M380,80 Q382,60 385,75 Q388,50 390,75 Q392,65 395,80" />
    <path d="M420,75 Q422,55 425,70 Q428,40 430,70 Q432,55 435,75" />
    <path d="M470,80 Q472,60 475,75 Q478,50 480,75 Q482,65 485,80" />
  </g>
</svg> 